<svg xmlns="http://www.w3.org/2000/svg" x="0px" y="0px" width="100" height="100" viewBox="0,0,256,256">
<g fill="#1b2845" fill-rule="nonzero" stroke="none" stroke-width="1" stroke-linecap="butt" stroke-linejoin="miter" stroke-miterlimit="10" stroke-dasharray="" stroke-dashoffset="0" font-family="none" font-weight="none" font-size="none" text-anchor="none" style="mix-blend-mode: normal"><g transform="scale(5.12,5.12)"><path d="M18.5,2c-4.65285,0 -8.5,3.84715 -8.5,8.5c0,3.28277 1.96658,6.08754 4.72852,7.5c-2.76194,1.41246 -4.72852,4.21723 -4.72852,7.5c0,3.28277 1.96658,6.08754 4.72852,7.5c-2.76194,1.41246 -4.72852,4.21723 -4.72852,7.5c0,4.65285 3.84715,8.5 8.5,8.5c4.65285,0 8.5,-3.84715 8.5,-8.5v-7.5v-3.32617c1.33741,2.54189 3.9191,4.32617 7,4.32617c4.42992,0 8,-3.57008 8,-8c0,-3.64417 -2.464,-6.583 -5.78711,-7.55469c3.32785,-1.15629 5.78711,-4.25129 5.78711,-7.94531c0,-4.65285 -3.84715,-8.5 -8.5,-8.5h-7.5zM18.5,4h6.5v13h-6.5c-3.54715,0 -6.5,-2.95285 -6.5,-6.5c0,-3.54715 2.95285,-6.5 6.5,-6.5zM27,4h6.5c3.54715,0 6.5,2.95285 6.5,6.5c0,3.54715 -2.95285,6.5 -6.5,6.5h-6.5zM18.5,19h6.5v13h-6.5c-3.54715,0 -6.5,-2.95285 -6.5,-6.5c0,-3.54715 2.95285,-6.5 6.5,-6.5zM27,19h3.32617c-1.42889,0.75181 -2.57437,1.89729 -3.32617,3.32617zM34,20c3.37009,0 6,2.62992 6,6c0,3.37008 -2.62991,6 -6,6c-3.37008,0 -6,-2.62992 -6,-6c0,-3.37008 2.62992,-6 6,-6zM18.5,34h6.5v6.5c0,3.54715 -2.95285,6.5 -6.5,6.5c-3.54715,0 -6.5,-2.95285 -6.5,-6.5c0,-3.54715 2.95285,-6.5 6.5,-6.5z"></path></g></g>
</svg>